<svg width="7" height="14" viewBox="0 0 7 14" fill="none" xmlns="http://www.w3.org/2000/svg">
    <path d="M5.9467 6.57165L0.812662 0.288406C0.726998 0.183514 0.613187 0.125 0.494836 0.125C0.376484 0.125 0.262674 0.183514 0.177011 0.288406L0.171483 0.295506C0.12981 0.346356 0.0966282 0.407563 0.0739532 0.475404C0.0512781 0.543245 0.0395846 0.616303 0.0395846 0.690131C0.0395846 0.76396 0.0512781 0.837018 0.0739532 0.904859C0.0966282 0.9727 0.12981 1.03391 0.171483 1.08476L5.00612 7.00118L0.171483 12.9152C0.12981 12.9661 0.0966283 13.0273 0.0739533 13.0951C0.0512783 13.163 0.0395848 13.236 0.0395848 13.3099C0.0395848 13.3837 0.0512783 13.4568 0.0739533 13.5246C0.0966283 13.5924 0.12981 13.6536 0.171483 13.7045L0.177011 13.7116C0.262674 13.8165 0.376485 13.875 0.494836 13.875C0.613187 13.875 0.726998 13.8165 0.812662 13.7116L5.9467 7.42835C5.99185 7.37309 6.0278 7.30663 6.05236 7.233C6.07692 7.15937 6.08958 7.0801 6.08958 7C6.08958 6.9199 6.07692 6.84062 6.05236 6.76699C6.0278 6.69336 5.99185 6.62691 5.9467 6.57165Z" fill="#737373"/>
</svg>
