<svg width="40" height="40" viewBox="0 0 40 40" fill="none" xmlns="http://www.w3.org/2000/svg">
    <path d="M22.1377 15.2897C22.1377 15.7317 21.9621 16.1557 21.6495 16.4682C21.337 16.7808 20.913 16.9564 20.471 16.9564C20.029 16.9564 19.6051 16.7808 19.2925 16.4682C18.9799 16.1557 18.8044 15.7317 18.8044 15.2897C18.8044 14.8477 18.9799 14.4238 19.2925 14.1112C19.6051 13.7986 20.029 13.623 20.471 13.623C20.913 13.623 21.337 13.7986 21.6495 14.1112C21.9621 14.4238 22.1377 14.8477 22.1377 15.2897Z" stroke="black" stroke-width="4" stroke-linejoin="round"/>
    <path d="M29.6377 16.1227C29.6377 21.1861 26.3044 26.9561 20.471 33.6227C14.6377 26.9561 11.3044 21.1861 11.3044 16.1227C11.3044 13.6916 12.2701 11.36 13.9892 9.64091C15.7083 7.92183 18.0399 6.95605 20.471 6.95605C22.9022 6.95605 25.2337 7.92183 26.9528 9.64091C28.6719 11.36 29.6377 13.6916 29.6377 16.1227Z" stroke="black" stroke-width="3" stroke-linejoin="round"/>
</svg>
